<?xml version="1.0" encoding="utf-8"?>
<!-- Generator: Adobe Illustrator 16.0.0, SVG Export Plug-In . SVG Version: 6.00 Build 0)  -->
<!DOCTYPE svg PUBLIC "-//W3C//DTD SVG 1.1//EN" "http://www.w3.org/Graphics/SVG/1.1/DTD/svg11.dtd">
<svg version="1.1" id="Layer_1" xmlns="http://www.w3.org/2000/svg" xmlns:xlink="http://www.w3.org/1999/xlink" x="0px" y="0px"
	 width="48px" height="48px" viewBox="0 0 48 48" enable-background="new 0 0 48 48" xml:space="preserve">
<path fill="none" d="M-1-1h50v50H-1V-1z"/>
<g>
	<g>
		<path fill="#E9EFF0" d="M3.046,12.522c0,24.91,20.604,33.125,20.95,33.26c0.354-0.136,20.958-8.351,20.958-33.26L24.002,2.217
			L3.046,12.522z"/>
		<path fill="#D9DFE0" d="M24.002,2.214h-0.005v0.003l-0.02,0.01v43.548l0.02,0.008v0.003h0.005v-0.003
			c0.348-0.137,20.952-8.35,20.952-33.26L24.002,2.216V2.214"/>
		<path fill="#D63636" d="M24.002,2.217V2.214h-0.005v0.003L3.047,12.522c0,24.91,20.603,33.125,20.95,33.26v0.004L24,45.784
			l0.002,0.002v-0.003c0.348-0.137,20.952-8.35,20.952-33.26L24.002,2.217 M24.002,42.82h-0.005
			c-0.3-0.119-18.102-7.217-18.102-28.739L23.997,5.18V5.178L24,5.18l0.002-0.002V5.18l18.104,8.905
			c0,21.521-17.802,28.62-18.104,28.74"/>
		<path fill="#3CEBEF" d="M24.002,4.147h-0.004L4.903,13.54c0,22.7,18.778,30.187,19.095,30.312v0.002h0.004v-0.002
			c0.317-0.125,19.096-7.608,19.096-30.313L24.002,4.147 M24.002,42.838h-0.005c-0.3-0.12-18.12-7.227-18.12-28.766l18.12-8.913
			h0.005l18.12,8.914C42.122,35.613,24.302,42.719,24.002,42.838"/>
		<path fill="#D63636" d="M23.976,5.188l18.129,8.895c0,21.521-17.805,28.62-18.104,28.74l-0.026,2.952
			c0.374-0.131,20.978-8.344,20.978-33.253L28.958,4.654l-4.956-2.437L23.976,5.188L23.976,5.188z"/>
		<path fill="#3CEBEF" d="M43.098,13.54L24.002,4.146h-0.004l-0.022,0.01V5.17l0.02-0.01h0.006l18.12,8.914
			c0,21.54-17.82,28.646-18.12,28.765h-0.005l-0.02-0.01v1.014l0.02,0.009v0.002h0.005v-0.002
			C24.319,43.727,43.098,36.242,43.098,13.54"/>
		<path fill="#3CEBEF" d="M5.878,14.074l-0.975-0.535l19.095-9.393l0.004,1.014L5.878,14.074"/>
		<path fill="#3CEBEF" d="M43.098,13.54l-0.976,0.534c0,21.54-17.82,28.646-18.12,28.765h-0.005l-0.02-0.01v1.014l0.02,0.009v0.002
			h0.005v-0.002C24.319,43.727,43.098,36.242,43.098,13.54"/>
	</g>
</g>
<rect x="12.733" y="14.074" fill="none" width="35.535" height="20.77"/>
<text transform="matrix(1 0 0 1 7.6079 25.2852)" fill="#002AF9" font-family="'SegoePrint'" font-size="11">&lt;CSS&gt;</text>
</svg>
