<?xml version="1.0" encoding="utf-8"?>
<!-- Generator: Adobe Illustrator 16.0.0, SVG Export Plug-In . SVG Version: 6.00 Build 0)  -->
<!DOCTYPE svg PUBLIC "-//W3C//DTD SVG 1.1//EN" "http://www.w3.org/Graphics/SVG/1.1/DTD/svg11.dtd">
<svg version="1.1" id="Layer_1" xmlns="http://www.w3.org/2000/svg" xmlns:xlink="http://www.w3.org/1999/xlink" x="0px" y="0px"
	 width="48px" height="48px" viewBox="0 0 48 48" enable-background="new 0 0 48 48" xml:space="preserve">
<path fill="none" d="M-1-1h50v50H-1V-1z"/>
<g>
	<g>
		<path fill="#E9EFF0" d="M3.046,12.522c0,24.91,20.604,33.125,20.95,33.26c0.354-0.136,20.958-8.351,20.958-33.26L24.002,2.217
			L3.046,12.522z"/>
		<path fill="#D9DFE0" d="M24.002,2.214h-0.005v0.003l-0.02,0.01v43.548l0.02,0.008v0.003h0.005v-0.003
			c0.348-0.137,20.952-8.35,20.952-33.26L24.002,2.216V2.214"/>
		<path fill="#D63636" d="M24.002,2.217V2.214h-0.005v0.003L3.047,12.522c0,24.91,20.603,33.125,20.95,33.26v0.004L24,45.784
			l0.002,0.002v-0.003c0.348-0.137,20.952-8.35,20.952-33.26L24.002,2.217 M24.002,42.82h-0.005
			c-0.3-0.119-18.102-7.217-18.102-28.739L23.997,5.18V5.178L24,5.18l0.002-0.002V5.18l18.104,8.905
			c0,21.521-17.803,28.62-18.104,28.74"/>
		<path fill="#3CEBEF" d="M24.002,4.147h-0.004L4.903,13.54c0,22.7,18.778,30.187,19.095,30.312v0.002h0.004v-0.002
			c0.317-0.125,19.096-7.609,19.096-30.313L24.002,4.147 M24.002,42.838h-0.005c-0.3-0.12-18.12-7.227-18.12-28.766l18.12-8.913
			h0.005l18.12,8.914C42.122,35.613,24.302,42.719,24.002,42.838"/>
		<path fill="#D63636" d="M23.976,5.188l18.129,8.895c0,21.521-17.804,28.62-18.104,28.74l-0.026,2.952
			c0.374-0.131,20.978-8.344,20.978-33.253L28.958,4.654l-4.956-2.437L23.976,5.188L23.976,5.188z"/>
		<path fill="#3CEBEF" d="M43.098,13.54L24.002,4.146h-0.004l-0.022,0.01V5.17l0.02-0.01h0.006l18.12,8.914
			c0,21.54-17.82,28.646-18.12,28.765h-0.005l-0.02-0.01v1.014l0.02,0.009v0.002h0.005v-0.002
			c0.317-0.125,19.096-7.61,19.096-30.313"/>
		<path fill="#3CEBEF" d="M5.878,14.074l-0.975-0.535l19.095-9.393l0.004,1.014L5.878,14.074"/>
		<path fill="#3CEBEF" d="M43.098,13.54l-0.976,0.534c0,21.54-17.82,28.646-18.12,28.765h-0.005l-0.02-0.01v1.014l0.02,0.009v0.002
			h0.005v-0.002c0.317-0.125,19.096-7.61,19.096-30.313"/>
		<g>
			<path fill="#FF0000" d="M26.127,17.626h-9.15c-1.527,0-2.864,0.923-3.283,2.68c-0.482,2.012-0.504,3.268,0,5.37
				c0.374,1.565,1.266,2.68,2.793,2.68h1.466v-2.414c0-2.546,1.842-3.625,3.624-3.625h4.55V17.626 M21.513,12.257
				c-2.224,0.395-2.628,1.222-2.628,2.747v1.33h6.028v-4.12C24.035,12.221,22.253,12.124,21.513,12.257z M21.075,15.127
				c-0.39,0-0.703-0.315-0.703-0.705c0-0.39,0.314-0.707,0.703-0.707c0.388,0,0.702,0.316,0.702,0.707
				C21.777,14.812,21.463,15.128,21.075,15.127L21.075,15.127z"/>
			<path fill="#FF0000" d="M23.955,22.318h2.324c1.436,0,2.115-0.722,2.115-2.17v-5.024c0-1.43-0.728-2.272-2.117-2.682
				c-0.817-0.24-1.486-0.212-2.324-0.228v10.104"/>
			<path fill="#FF0000" d="M21.782,28.172h9.149c1.527,0,2.864-0.923,3.283-2.68c0.482-2.013,0.503-3.27,0-5.37
				c-0.374-1.566-1.266-2.68-2.793-2.68h-1.466v2.414c0,2.546-1.843,3.626-3.624,3.626h-4.55V28.172 M26.396,33.54
				c2.224-0.394,2.627-1.222,2.627-2.747v-1.33h-6.027v4.12C23.874,33.576,25.656,33.673,26.396,33.54L26.396,33.54z M26.836,30.67
				c0.387,0,0.7,0.314,0.7,0.706c0,0.39-0.313,0.707-0.7,0.707c-0.391,0-0.704-0.317-0.704-0.707S26.445,30.669,26.836,30.67
				L26.836,30.67z"/>
			<path fill="#FF0000" d="M23.898,23.48H21.63c-1.437,0-2.116,0.722-2.116,2.168v5.024c0,1.431,0.727,2.272,2.116,2.683
				c0.817,0.239,1.43,0.213,2.268,0.229V23.48"/>
		</g>
	</g>
</g>
</svg>
